<svg width="40" height="40" viewBox="0 0 40 40" fill="none" xmlns="http://www.w3.org/2000/svg">
<g clip-path="url(#clip0_197_708)">
<path d="M20 0.5C30.7699 0.5 39.5 9.23005 39.5 20C39.5 30.7699 30.7699 39.5 20 39.5C9.23005 39.5 0.5 30.7699 0.5 20C0.5 9.23005 9.23005 0.5 20 0.5Z" stroke="white"/>
<path d="M24.445 9H15.554C13.8162 9.00132 12.1499 9.69226 10.9211 10.9211C9.69226 12.1499 9.00132 13.8162 9 15.554V24.445C9.00106 26.183 9.69188 27.8495 10.9207 29.0786C12.1496 30.3076 13.816 30.9987 15.554 31H24.445C26.1829 30.9984 27.8492 30.3073 29.078 29.0783C30.3068 27.8493 30.9977 26.1829 30.999 24.445V15.554C30.9982 13.816 30.3074 12.1494 29.0785 10.9205C27.8496 9.69156 26.183 9.00079 24.445 9ZM28.787 24.445C28.7867 25.5965 28.3292 26.7007 27.515 27.515C26.7007 28.3292 25.5965 28.7867 24.445 28.787H15.554C14.9838 28.787 14.4193 28.6747 13.8925 28.4565C13.3658 28.2382 12.8872 27.9184 12.4841 27.5152C12.081 27.112 11.7612 26.6333 11.5432 26.1065C11.3251 25.5797 11.2129 25.0152 11.213 24.445V15.554C11.2129 14.9839 11.3251 14.4193 11.5432 13.8926C11.7613 13.3659 12.081 12.8873 12.4842 12.4842C12.8873 12.081 13.3659 11.7613 13.8926 11.5432C14.4193 11.3251 14.9839 11.2129 15.554 11.213H24.445C25.5962 11.2133 26.7002 11.6707 27.5143 12.4847C28.3283 13.2988 28.7857 14.4028 28.786 15.554L28.787 24.445Z" fill="white"/>
<path d="M20 14.312C16.862 14.312 14.312 16.863 14.312 20C14.312 23.137 16.863 25.688 20 25.688C23.137 25.688 25.688 23.137 25.688 20C25.688 16.863 23.138 14.312 20 14.312ZM20 23.475C19.0784 23.4751 18.1945 23.1091 17.5427 22.4575C16.8909 21.8059 16.5246 20.9221 16.5245 20.0005C16.5244 19.0788 16.8904 18.1949 17.542 17.5431C18.1936 16.8913 19.0774 16.5251 19.999 16.525C20.9206 16.5248 21.8046 16.8908 22.4564 17.5424C23.1081 18.194 23.4744 19.0778 23.4745 19.9995C23.4746 20.9211 23.1087 21.805 22.4571 22.4568C21.8055 23.1086 20.9216 23.4748 20 23.475ZM25.7 12.991C25.9695 12.9912 26.2329 13.0712 26.4569 13.2211C26.6809 13.3709 26.8554 13.5838 26.9585 13.8328C27.0615 14.0818 27.0884 14.3558 27.0358 14.6201C26.9831 14.8844 26.8534 15.1272 26.6628 15.3178C26.4722 15.5083 26.2295 15.6381 25.9652 15.6907C25.7009 15.7434 25.4269 15.7164 25.1779 15.6134C24.9289 15.5104 24.716 15.3358 24.5661 15.1118C24.4163 14.8878 24.3362 14.6245 24.336 14.355C24.336 13.603 24.846 12.991 25.7 12.991Z" fill="white"/>
</g>
<defs>
<clipPath id="clip0_197_708">
<rect width="40" height="40" fill="white"/>
</clipPath>
</defs>
</svg>
