<svg width="120" height="32" viewBox="0 0 120 32" fill="none" xmlns="http://www.w3.org/2000/svg">
<g clip-path="url(#clip0_197_721)">
<path d="M20.2703 10.6973L19.1478 8.93547L31.7646 0.803833L18.7898 25.7281L13.5195 17.3868L15.5294 16.1491L18.6798 21.1636L25.8346 7.33472L20.2703 10.6973Z" fill="#2189FF"/>
<path d="M11.4968 18.6755L12.6194 20.4374L0 28.569L12.9774 3.64734L18.2476 11.9887L16.2352 13.2238L13.0873 8.20924L5.92996 22.0381L11.4968 18.6755Z" fill="#2189FF"/>
</g>
<path d="M39.5975 17.9876V7.6713H36.8748V5.70484H39.658V0.803833H41.8363V5.70484H46.5558V7.6713H41.8363V17.2918L43.3489 18.8045H46.5558V20.7709H42.3808L39.5975 17.9876Z" fill="#2189FF"/>
<path d="M49.2785 17.9876V8.48813L52.0618 5.70484H59.6554L62.4689 8.48813V13.9034H51.5173V17.2918L53.0299 18.7742H58.6873L60.1999 17.2918V16.1422H62.4387V17.9876L59.6554 20.7709H52.0618L49.2785 17.9876ZM60.2302 11.9672V9.18396L58.7175 7.70155H53.0299L51.5173 9.18396V11.9672H60.2302Z" fill="#2189FF"/>
<path d="M65.3328 18.6834L74.681 7.64104V7.58054H65.6353V5.70484H77.2525V7.79231L67.9043 18.8347V18.8952H77.2525V20.7709H65.3328V18.6834Z" fill="#2189FF"/>
<path d="M80.7206 5.70484H82.8988V8.39737L85.5913 5.70484H89.494V7.70155H86.1661L82.9593 10.9084V20.7709H80.7206V5.70484Z" fill="#2189FF"/>
<path d="M91.139 18.2902V14.448L93.6197 11.9975H101.667V9.12345L100.154 7.64104H95.0114L93.4987 9.12345V10.3638H91.26V8.48813L94.0433 5.70484H101.092L103.876 8.48813V20.7709H101.728V18.1086L98.9443 20.7709H93.6197L91.139 18.2902ZM98.4905 18.8347L101.667 15.7791V13.9337H94.5878L93.3777 15.1136V17.6548L94.5878 18.8347H98.4905Z" fill="#2189FF"/>
<path d="M107.499 18.2902V16.4145H109.738V17.6548L110.948 18.8347H116.515L117.725 17.6548V15.3253L116.515 14.1152H110.01L107.62 11.7252V8.1856L110.101 5.70484H117.18L119.661 8.1856V10.0613H117.422V8.82092L116.212 7.64104H111.069L109.859 8.82092V11.0294L111.069 12.2395H117.483L119.964 14.7203V18.2902L117.483 20.7709H109.98L107.499 18.2902Z" fill="#2189FF"/>
<path d="M97.6332 28.2958V25.4459L98.4682 24.611H100.646L101.481 25.4459V25.9996H100.81V25.6547L100.356 25.21H98.7586L98.3048 25.6547V28.087L98.7586 28.5318H100.356L100.81 28.087V27.7422H101.481V28.2958L100.646 29.1308H98.4682L97.6332 28.2958Z" fill="#2189FF"/>
<path d="M102.436 28.3866V27.2339L103.18 26.4988H105.594V25.6365L105.141 25.1918H103.598L103.144 25.6365V26.0087H102.472V25.4459L103.307 24.611H105.422L106.257 25.4459V29.1308H105.613V28.3321L104.778 29.1308H103.18L102.436 28.3866ZM104.641 28.5499L105.594 27.6333V27.0796H103.471L103.108 27.4336V28.196L103.471 28.5499H104.641Z" fill="#2189FF"/>
<path d="M107.571 24.611H108.224V25.4187L109.032 24.611H110.203V25.21H109.205L108.243 26.172V29.1308H107.571V24.611Z" fill="#2189FF"/>
<path d="M114.735 24.611V30.2834L113.909 31.1093H111.668L110.969 30.4105V29.8569H111.64V30.1927L111.958 30.5103H113.61L114.064 30.0656V28.3775L113.229 29.1308H111.577L110.742 28.2958V25.4459L111.577 24.611H113.292L114.082 25.4006V24.611H114.735ZM114.064 26.1629L113.111 25.21H111.867L111.414 25.6547V28.087L111.867 28.5318H113.12L114.064 27.6514V26.1629Z" fill="#2189FF"/>
<path d="M116.007 28.2958V25.4459L116.842 24.611H119.165L120 25.4459V28.2958L119.165 29.1308H116.842L116.007 28.2958ZM118.875 28.5318L119.328 28.087V25.6547L118.875 25.21H117.132L116.678 25.6547V28.087L117.132 28.5318H118.875Z" fill="#2189FF"/>
<defs>
<clipPath id="clip0_197_721">
<rect width="31.7645" height="27.7652" fill="white" transform="translate(0 0.803833)"/>
</clipPath>
</defs>
</svg>
