<svg width="40" height="40" viewBox="0 0 40 40" fill="none" xmlns="http://www.w3.org/2000/svg">
<g clip-path="url(#clip0_197_677)">
<path d="M20 0.5C30.7699 0.5 39.5 9.23005 39.5 20C39.5 30.7699 30.7699 39.5 20 39.5C9.23005 39.5 0.5 30.7699 0.5 20C0.5 9.23005 9.23005 0.5 20 0.5Z" stroke="white"/>
<path d="M29.2034 13.5582C28.9904 15.7747 27.2669 27.0234 26.8991 28.1521C26.5851 29.1165 26.253 29.9469 25.6225 29.9469C24.9921 29.9469 24.3034 29.7269 23.6243 29.2417C22.9451 28.7565 18.4364 25.7321 17.8095 25.3373C17.2608 24.9912 16.6799 24.1269 17.4982 23.293C18.1721 22.606 23.2834 17.6452 23.7199 17.2086C24.1564 16.7712 23.7304 16.2121 23.1964 16.6486C22.6617 17.0852 15.2156 22.0678 14.5704 22.4686C13.9617 22.8469 12.8756 23.0756 11.9217 22.8121C10.9312 22.5391 9.25384 22.0304 8.58775 21.793C7.94775 21.5643 7.71558 21.3443 7.71558 20.953C7.71558 20.3965 8.49992 20.0121 9.32949 19.6599C10.2043 19.2878 25.3451 12.8591 26.5295 12.4321C27.393 12.1208 28.1373 11.9999 28.6399 12.2417C29.0556 12.4408 29.2678 12.8869 29.2034 13.5582Z" fill="white"/>
</g>
<defs>
<clipPath id="clip0_197_677">
<rect width="40" height="40" fill="white"/>
</clipPath>
</defs>
</svg>
